<svg xmlns="http://www.w3.org/2000/svg" xml:space="preserve" style="fill-rule:evenodd;clip-rule:evenodd;stroke-linejoin:round;stroke-miterlimit:2" viewBox="0 0 208 235">
    <path d="M108.903 223.735c-1.378.065-2.354.496-2.929 1.29-.576.795-.831 1.855-.765 3.181.03.646.136 1.227.313 1.744.177.516.426.958.749 1.322a3.09 3.09 0 0 0 1.179.825c.465.188 1.003.267 1.61.236.329-.015.609-.036.842-.059.232-.023.436-.059.613-.105l-.225-4.568 2.957-.144.32 6.501c-.347.157-.909.333-1.684.53-.777.196-1.739.32-2.889.377-.986.047-1.888-.061-2.706-.326a5.615 5.615 0 0 1-2.121-1.227c-.597-.554-1.072-1.247-1.422-2.078-.353-.831-.553-1.791-.607-2.879-.054-1.099.068-2.08.369-2.944.298-.863.73-1.602 1.296-2.217a5.906 5.906 0 0 1 2.029-1.44 7.212 7.212 0 0 1 2.547-.578c.619-.03 1.18-.017 1.683.042.503.058.937.132 1.302.222a5.98 5.98 0 0 1 1.423.529l-.735 2.412a7.713 7.713 0 0 0-1.421-.492 5.897 5.897 0 0 0-1.728-.154Zm-15.791 4.233c-.207 1.2-.567 2.224-1.081 3.073-.512.85-1.133 1.528-1.859 2.036a6.13 6.13 0 0 1-2.452 1.008 8.132 8.132 0 0 1-2.839-.007 7.913 7.913 0 0 1-2.631-.925 6.297 6.297 0 0 1-1.988-1.765c-.528-.722-.895-1.566-1.104-2.538-.208-.973-.21-2.059-.004-3.258.207-1.201.575-2.225 1.11-3.07.534-.846 1.175-1.523 1.922-2.033a6.391 6.391 0 0 1 2.462-1.018 7.763 7.763 0 0 1 2.741-.013 8.024 8.024 0 0 1 2.631.928 6.288 6.288 0 0 1 1.986 1.773c.526.73.893 1.58 1.102 2.551.208.972.208 2.058.004 3.258Zm27.455-2.482a73.04 73.04 0 0 0 .988-2.833c.307-.943.575-1.882.805-2.822l3.126-.563a81.558 81.558 0 0 1-1.431 4.328 102.99 102.99 0 0 1-1.649 4.256l.873 4.814-2.834.511-.868-4.778a102.883 102.883 0 0 1-3.051-3.428 84.869 84.869 0 0 1-2.872-3.573l3.291-.593a46.301 46.301 0 0 0 1.72 2.366 55.443 55.443 0 0 0 1.902 2.315Zm-38.157.661c-.116.687-.14 1.32-.066 1.903a4.32 4.32 0 0 0 .485 1.549c.248.45.583.825 1.004 1.118.423.294.929.49 1.523.593.579.099 1.12.08 1.622-.058a3.235 3.235 0 0 0 1.331-.719c.385-.345.709-.778.973-1.303.263-.523.454-1.13.572-1.818.118-.686.14-1.324.068-1.913a4.282 4.282 0 0 0-.481-1.558 3.218 3.218 0 0 0-1.016-1.12 3.712 3.712 0 0 0-1.511-.591c-.595-.101-1.14-.08-1.635.065a3.378 3.378 0 0 0-1.324.732 4.328 4.328 0 0 0-.974 1.312 6.544 6.544 0 0 0-.571 1.808Zm-10.715 4.378a69.904 69.904 0 0 0-1.226-5.386 47.408 47.408 0 0 0-1.725-5.22l-2.938 8.594-2.915-.996 4.484-13.117 2.404.821c.275.559.56 1.229.858 2.006.297.777.591 1.6.88 2.466.288.868.565 1.759.831 2.673.264.916.507 1.791.729 2.628l2.645-7.742 2.935 1.002-4.483 13.118-2.479-.847Zm57.776-12.294c.33.304.722.688 1.172 1.149a92.177 92.177 0 0 1 2.957 3.184l1.435 1.621.168-2.157a93.209 93.209 0 0 1 .441-4.323c.084-.64.164-1.181.245-1.625l2.416-.809a58.72 58.72 0 0 1 1.196 2.524c.423.939.845 1.92 1.27 2.944.426 1.026.847 2.055 1.262 3.089.417 1.035.804 2.01 1.161 2.926l-2.587.865a348.801 348.801 0 0 0-1.391-3.699 110.307 110.307 0 0 0-1.625-3.999l-.151 1.812c-.057.663-.111 1.324-.163 1.985-.05.659-.1 1.292-.153 1.896l-.126 1.548-1.855.622c-.284-.321-.629-.708-1.033-1.159a224.7 224.7 0 0 1-1.267-1.422c-.439-.497-.88-.992-1.324-1.487-.446-.495-.848-.947-1.212-1.354.346 1.41.717 2.8 1.111 4.17.397 1.37.77 2.632 1.12 3.791l-2.589.867c-.266-.946-.545-1.958-.835-3.033a237.015 237.015 0 0 1-.853-3.227 119.06 119.06 0 0 1-.762-3.115 63.056 63.056 0 0 1-.565-2.735l2.537-.849Zm-34.542 8.377 5.644.296-.14 2.627-5.644-.294.14-2.629Zm-38.281-2.191a66.962 66.962 0 0 0-.383-5.369 46.964 46.964 0 0 0-.891-5.284l-4.096 7.845-2.661-1.393 6.254-11.974 2.194 1.149c.18.578.357 1.266.528 2.059.173.793.333 1.629.483 2.506.151.878.285 1.778.405 2.7.12.919.227 1.8.315 2.638l3.691-7.066 2.676 1.4-6.251 11.974-2.264-1.185Zm96.922-3.023a60.987 60.987 0 0 0-4.116-2.498 41.066 41.066 0 0 0-4.313-2.082l3.6 7.051-2.392 1.221-5.495-10.762 1.97-1.008c.518.166 1.109.392 1.778.676.668.288 1.36.602 2.078.947.717.345 1.442.711 2.176 1.099.733.389 1.43.766 2.088 1.134l-3.245-6.351 2.407-1.232 5.498 10.763-2.034 1.042Zm11.599-7.577c-.339-.263-.691-.53-1.057-.798l-1.097-.804-3.775 2.595.361 1.314c.12.44.242.863.367 1.269l-2.261 1.553a220.77 220.77 0 0 1-.947-3.601 114.563 114.563 0 0 1-1.36-6.017 60.555 60.555 0 0 1-.469-2.709l2.063-1.418a89.461 89.461 0 0 1 4.811 2.999c.849.565 1.741 1.178 2.675 1.837.933.66 1.939 1.385 3.019 2.176l-2.33 1.604Zm-126.862-.901 7.588-10.743 7.251 5.13-1.435 2.031-4.834-3.42-1.489 2.108 4.291 3.038-1.4 1.983-4.292-3.035-1.827 2.588 5.189 3.671-1.434 2.031-7.608-5.382Zm119.114-4.784c.048.175.108.415.181.722l.572 2.378c.114.483.239.985.373 1.509l2.765-1.902c-.437-.316-.856-.619-1.256-.905a47.213 47.213 0 0 0-1.114-.777c-.343-.231-.643-.436-.904-.612-.26-.177-.465-.314-.617-.413Zm12.773-1.08c.275-.236.479-.454.617-.653.14-.2.228-.385.268-.557a.829.829 0 0 0-.017-.473 1.384 1.384 0 0 0-.249-.415c-.244-.28-.578-.4-1.003-.356-.427.042-1.057.234-1.888.579-.367.145-.747.273-1.139.389-.392.114-.785.17-1.175.17a3.052 3.052 0 0 1-1.159-.237c-.38-.154-.743-.43-1.086-.829a3.315 3.315 0 0 1-.705-1.266 3.048 3.048 0 0 1-.07-1.363c.08-.459.263-.918.549-1.375a5.964 5.964 0 0 1 1.16-1.318c.579-.5 1.135-.871 1.663-1.111.529-.241.996-.406 1.397-.494l.761 2.012a7.14 7.14 0 0 0-1.084.362c-.377.161-.771.419-1.186.776-.463.401-.741.754-.833 1.058-.09.303-.023.587.206.852a.896.896 0 0 0 .455.3c.168.044.356.051.569.018a3.52 3.52 0 0 0 .675-.171c.238-.083.499-.181.777-.291a16.748 16.748 0 0 1 1.591-.52c.471-.126.91-.174 1.315-.149.404.025.787.137 1.146.334.357.196.715.501 1.071.916.696.803.953 1.669.772 2.598-.18.93-.838 1.885-1.97 2.865-.38.331-.745.605-1.09.824-.346.22-.665.398-.958.535a6.115 6.115 0 0 1-.791.316 5.996 5.996 0 0 1-.611.158l-.783-2.011a6.484 6.484 0 0 0 1.276-.443c.473-.215.984-.557 1.529-1.03Zm-138.868-.12a32.928 32.928 0 0 1-1.506-1.457c-.487-.5-.954-1.062-1.403-1.685l8.341-9.188a18.75 18.75 0 0 1 1.603 1.12c.555.431 1.058.85 1.505 1.254a13.34 13.34 0 0 1 1.543 1.64c.427.544.727 1.087.901 1.628a3.14 3.14 0 0 1 .104 1.603c-.106.529-.386 1.044-.841 1.545-.688.757-1.593 1.021-2.719.797.395.775.523 1.457.387 2.048a3.622 3.622 0 0 1-.876 1.623c-.901.994-1.943 1.412-3.122 1.256-1.18-.157-2.486-.885-3.917-2.184Zm2.782-5.233-2.223 2.448c.139.158.295.325.469.499.174.177.371.362.59.561.637.579 1.233.955 1.793 1.13.557.172 1.058.014 1.504-.479.399-.437.517-.898.359-1.382-.158-.485-.543-1.006-1.154-1.562l-1.338-1.215Zm134.595-5.805 1.751-1.757 7.809 7.774-1.749 1.757-7.811-7.774Zm-133.119 4.178 1.038.944c.657.595 1.202.937 1.639 1.025.435.088.821-.053 1.162-.428.347-.383.445-.784.294-1.204-.152-.419-.508-.886-1.073-1.399a29.714 29.714 0 0 0-.595-.527 8.042 8.042 0 0 0-.591-.475l-1.874 2.064Zm147.585-3.521c-.482.571-.981.996-1.492 1.276-.514.279-1.026.433-1.541.461a3.496 3.496 0 0 1-1.528-.264 5.594 5.594 0 0 1-1.476-.913l-5.064-4.283 1.55-1.833 4.913 4.154c.329.278.641.476.934.599.294.12.568.176.823.17.254-.006.491-.076.709-.206.219-.131.421-.306.606-.525.379-.446.547-.926.509-1.435-.041-.509-.389-1.044-1.046-1.598L176.153 188l1.55-1.832 5.066 4.282c.478.403.861.842 1.147 1.313.287.471.457.964.512 1.479.054.516-.021 1.051-.221 1.606-.202.556-.547 1.124-1.038 1.703Zm-158.741.822c-.413.348-.836.483-1.27.405a1.767 1.767 0 0 1-1.07-.612 1.766 1.766 0 0 1-.427-1.156c-.006-.44.197-.835.607-1.184.411-.348.834-.483 1.271-.405.434.078.791.283 1.07.612.278.329.42.713.426 1.156.006.44-.196.838-.607 1.184ZM82.537 80.358c1.091-1.889 2.295-3.536 3.578-5.139a67.778 67.778 0 0 1 4.099-4.584l.615-.607.567-.519 1.134-1.014c.763-.669 1.525-1.316 2.3-1.962a149.988 149.988 0 0 1 4.707-3.752 2.918 2.918 0 0 1 3.957.383l.084.088c1.454 1.652 2.873 3.222 4.356 4.628a30.26 30.26 0 0 0 4.775 3.69l.362.267-.05-.041-.002-.001-.02-.016.022.017.29.177a8.2 8.2 0 0 0 .534.277c.379.186.799.357 1.236.517.877.321 1.823.583 2.795.8 1.899.444 3.854.621 5.802.583 3.885-.093 7.812-1.042 10.962-2.994l.01-.004a3.24 3.24 0 0 1 3.249-.094l.884.476a3.27 3.27 0 0 1 1.413 1.517c4.009 8.804 6.666 18.223 7.776 27.862 1.091 9.647.655 19.49-2.146 29.019-1.484 4.79-4.001 9.364-7.39 13.115-3.387 3.776-7.569 6.626-11.817 8.909-2.132 1.135-4.299 2.139-6.432 3.119l-1.584.731c-.433.193-.992.491-1.468.741-.998.53-1.97 1.088-2.911 1.688-3.768 2.37-7.054 5.432-9.37 9.202l-.625 1.337-.142.37a9.079 9.079 0 0 0-.453 1.802 9.483 9.483 0 0 0 .189 3.715 8.714 8.714 0 0 0 1.95 3.668l.375.394c.212.24.449.455.681.674a9.725 9.725 0 0 0 1.563 1.111c2.247 1.288 4.996 1.726 7.733 1.704 2.744-.004 5.51-.497 8.25-1.104l4.733-1.585.018-.008a.921.921 0 0 1 1.162.579.91.91 0 0 1-.058.715c-1.741 3.357-4.009 6.308-6.4 9.105l-.037.038-.013.01c-3.132 3.158-7.213 5.425-11.616 6.328-4.417.893-8.959.612-13.334-.623-4.38-1.328-8.299-4.17-11.177-7.685-2.478-2.989-4.342-6.357-5.878-9.789a29.202 29.202 0 0 1-4.064.469 36.076 36.076 0 0 1-5.874-.227c-3.863-.467-7.602-1.408-11.222-2.64a2.215 2.215 0 0 1-.315-.139l-.056-.027-1.645-.884-.815-.442c-.363-.189-.611-.338-.912-.516a35.656 35.656 0 0 1-3.348-2.252c-2.132-1.627-4.115-3.458-5.84-5.55-1.713-2.086-3.216-4.404-4.316-6.979-1.096-2.562-1.769-5.421-1.693-8.355v-.056a2.59 2.59 0 0 1 2.663-2.526c.447.008.875.14 1.236.349 1.877 1.087 3.552 2.047 5.356 2.85.887.405 1.818.779 2.718 1.105.972.338 1.952.661 2.93.967 3.925 1.224 7.908 2.18 11.907 2.635 3.981.473 8.012.418 11.757-.625a20.49 20.49 0 0 0 5.294-2.291 19.549 19.549 0 0 0 4.376-3.73c1.164-1.609 1.815-3.727 2.175-5.914.185-1.113.279-2.252.333-3.405.02-.569.03-1.182.03-1.707-.01-.487-.086-1-.234-1.474-.135-.473-.339-.936-.579-1.231-.051-.068-.142-.158-.142-.164l-.015-.026-.16-.094c-.054-.028-.224-.042-.421-.015-.441.063-.955.255-1.43.494a4.774 4.774 0 0 0-.663.394c-.115.08-.137.082-.267.215l-.26.282c-1.467 1.705-2.547 3.833-3.266 6.061l-.004.008a.308.308 0 0 1-.393.197c-.028-.011-.064-.025-.088-.047-2.439-1.861-4.678-3.961-6.62-6.373-.98-1.202-1.849-2.496-2.661-3.811-.805-1.322-1.542-2.701-2.154-4.164-.609-1.47-1.096-3.023-1.278-4.696-.193-1.681-.046-3.447.725-5.183l.245-.522a13.165 13.165 0 0 1 .961-1.659 22.27 22.27 0 0 1 1.473-1.944 32.863 32.863 0 0 1 2.492-2.622c-.641-2.419-.963-4.873-1.086-7.321a48.093 48.093 0 0 1 .367-8.365c.357-2.775.974-5.52 1.866-8.221.872-2.63 2.006-5.226 3.679-7.664Zm59.376 21.313c-1.103-8.087-3.422-16.003-6.602-23.541a27.191 27.191 0 0 1-4.198 1.519 28.598 28.598 0 0 1-7.354.978 30.077 30.077 0 0 1-7.336-.86 29.297 29.297 0 0 1-3.562-1.092 20.901 20.901 0 0 1-1.805-.793 15.809 15.809 0 0 1-.926-.507 8.445 8.445 0 0 1-.489-.31l-.26-.185c-.082-.06-.129-.088-.227-.168a35.58 35.58 0 0 1-5.466-4.404 46.752 46.752 0 0 1-2.869-3.062c-.791.595-1.583 1.193-2.358 1.798a92.295 92.295 0 0 0-2.238 1.791l-1.092.914-.535.458-.062.059-.018.013-.361.345a63.147 63.147 0 0 0-3.883 4.068c-1.204 1.404-2.386 2.875-3.304 4.339l-.076.117c-.024.029-.044.067-.068.098-1.409 1.833-2.535 4.061-3.424 6.389-.892 2.336-1.531 4.803-2.01 7.299-.921 4.991-1.102 10.232.012 15.079l.03.134c.15.655-.1 1.324-.603 1.697-1.823 1.354-5.458 4.859-5.366 8.851.091 3.907 1.482 6.275 3.109 8.718 1.573 2.294 3.218 3.861 5.25 5.81 1.249-2.753 5.419-5.976 8.361-5.532 2.941.445 3.556 6.14 2.931 11.804-.274 2.478-1.141 5.323-2.63 7.676l-.012.013-.068.092c-2.717 3.599-6.65 6.442-11.014 7.822-4.353 1.439-8.928 1.694-13.326 1.385-4.414-.343-8.707-1.254-12.879-2.41a95.724 95.724 0 0 1-3.115-.922 38.77 38.77 0 0 1-3.19-1.172c-.391-.16-.776-.341-1.158-.517.865 2.499 2.348 4.909 4.151 7.025 1.475 1.721 3.13 3.33 4.953 4.716a30.116 30.116 0 0 0 2.825 1.931c.228.141.511.311.707.413l.822.447 1.444.792c3.224 1.198 6.546 2.135 9.886 2.646 3.398.53 6.842.657 10.056-.03l.126-.026a2.172 2.172 0 0 1 2.513 1.411c1.371 3.905 3.901 7.784 6.261 11.006 2.343 3.221 8.322 8.14 19.962 6.74 8.972-1.082 13.827-8.422 14.346-9.241 0 0-8.67 4.621-18.634.152-8.424-3.778-9.105-10.619-6.687-15.981 2.417-5.361 5.563-8.525 11.666-12.345 1.036-.65 2.012-1.379 3.06-2.006.535-.32 1-.608 1.617-.932l1.558-.824c2.066-1.094 4.094-2.176 6.03-3.348 3.894-2.305 7.419-5.016 10.19-8.331 2.801-3.286 4.767-7.174 5.964-11.346 1.175-4.217 1.796-8.715 2.012-13.188.207-4.489-.03-9.002-.637-13.472ZM30.078 187.433l-1.881 1.356-2.134-2.955-7.922 5.714-1.593-2.206 7.922-5.712-2.136-2.955 1.882-1.356 5.862 8.114Zm150.388-4.837c.373.028.824.076 1.354.145.532.068 1.101.148 1.709.242.608.094 1.225.199 1.85.308l1.768.317c-.313-.465-.646-.959-.998-1.489a64.83 64.83 0 0 1-1.934-3.035 27.764 27.764 0 0 1-.677-1.18l1.156-1.767c.627.29 1.321.633 2.076 1.025.756.393 1.535.814 2.338 1.261a263.072 263.072 0 0 1 4.667 2.664l-1.239 1.894a300.893 300.893 0 0 0-2.805-1.691 90.193 90.193 0 0 0-3.112-1.765l.832 1.257c.302.458.607.917.913 1.372.307.455.6.891.876 1.31.277.419.515.778.713 1.071l-.887 1.357-1.268-.222c-.495-.087-1.015-.177-1.556-.275-.538-.098-1.081-.192-1.624-.286-.543-.094-1.038-.178-1.485-.257.95.74 1.905 1.451 2.867 2.139.96.686 1.852 1.316 2.675 1.888l-1.238 1.892c-.659-.477-1.361-.991-2.104-1.54a439.381 439.381 0 0 1-2.212-1.659 92.834 92.834 0 0 1-2.093-1.636 47.426 47.426 0 0 1-1.774-1.486l1.212-1.854Zm-167.23-2.789c.18.314.355.558.525.731.168.175.334.297.495.37.16.07.316.093.467.072a1.35 1.35 0 0 0 .454-.167c.323-.186.503-.49.541-.917.04-.427-.03-1.08-.208-1.962a13.257 13.257 0 0 1-.166-1.192 4.11 4.11 0 0 1 .056-1.186 3.01 3.01 0 0 1 .451-1.093c.224-.344.565-.646 1.019-.907a3.274 3.274 0 0 1 1.379-.45c.465-.041.914.023 1.35.189.437.165.852.432 1.246.798.395.366.752.831 1.075 1.391.382.663.641 1.278.777 1.842.136.566.208 1.055.218 1.465l-2.119.366a7.198 7.198 0 0 0-.151-1.135c-.086-.399-.264-.835-.537-1.311-.304-.53-.599-.869-.879-1.017-.281-.149-.573-.134-.878.04a.915.915 0 0 0-.381.388 1.458 1.458 0 0 0-.126.556c-.01.214.004.446.042.697.037.25.082.523.139.818.106.621.174 1.174.208 1.661.032.484-.002.923-.104 1.318a2.694 2.694 0 0 1-.545 1.06c-.261.314-.629.607-1.102.88-.922.528-1.822.617-2.699.261-.88-.352-1.693-1.179-2.441-2.478a9.66 9.66 0 0 1-.601-1.226 8.746 8.746 0 0 1-.344-1.042 6.198 6.198 0 0 1-.201-1.467l2.126-.386c.008.386.072.832.193 1.339.12.504.36 1.069.721 1.694ZM138.265 31.434l-3.703 12.958c36.251 12.833 62.21 47.278 62.21 87.762 0 14.048-3.132 27.365-8.726 39.308l8.744 3.778c6.852-13.85 10.709-29.446 10.709-45.946 0-45.195-28.904-83.636-69.234-97.86Zm-19.762-4.839a104.455 104.455 0 0 0-14.752-1.049C46.452 25.546 0 71.996 0 129.295c0 14.919 3.156 29.098 8.826 41.92l7.772-3.753c-4.486-10.89-6.967-22.809-6.967-35.308 0-51.433 41.893-93.127 93.571-93.127 4.486 0 8.894.32 13.211.927l2.09-13.359ZM91.342 135.324l.015.005-.015-.005Zm30.028-38.757v.008a10.22 10.22 0 0 1-1.867 5.931c-.636.914-1.439 1.797-2.454 2.471-1.027.705-2.126 1.268-3.545 1.55l-.373.101c-.164.028-.37.05-.557.07-.347.038-.685.062-1.036.07-.697.002-1.412-.04-2.113-.206-1.4-.327-2.808-.912-4.004-1.852-2.418-1.831-3.969-4.977-3.945-8.141-.024-3.165 1.539-6.305 3.959-8.128 1.204-.926 2.605-1.517 3.999-1.845a9.86 9.86 0 0 1 4.13.034 9.703 9.703 0 0 1 3.476 1.541c1.019.671 1.815 1.558 2.459 2.464a10.175 10.175 0 0 1 1.871 5.932Zm-2.89.107a6.063 6.063 0 0 0-1.821-4.268 6.002 6.002 0 0 0-4.269-1.717 5.962 5.962 0 0 0-4.194 1.789 5.902 5.902 0 0 0-1.685 4.198 5.91 5.91 0 0 0 1.685 4.194 5.955 5.955 0 0 0 4.204 1.789 6.001 6.001 0 0 0 4.259-1.716 6.06 6.06 0 0 0 1.821-4.269ZM82.537 80.358l.122-.176-.143.213.021-.037Zm11.975-6.077-.01.008-.006.006c-.002.002.002 0 .016-.014Zm59.236-65.455-1.663 6.518-7.722-1.978-1.897 6.402 7.864 2.434-1.497 5.833-16.074-4.117-9 37.763c2.482 1.492 4.754 3.799 5.926 6.548a36.45 36.45 0 0 1-3.751.887c-.325.055-.655.097-.977.135a7.665 7.665 0 0 0-4.873-3.817c-2.223-.576-4.458-.105-6.222 1.08a22.238 22.238 0 0 1-3.759-3.044c1.135-.962 2.275-1.659 3.161-2.026 2.526-1.051 4.76-.979 4.76-.979L133.087.002l.07-.002 5.216 1.335-.786 3.071 16.161 4.42Z" style="fill:#ffffffc4;fill-rule:nonzero"></path>
</svg>